<svg xmlns="http://www.w3.org/2000/svg" width="27" height="27" viewBox="0 0 27 27">
  <g id="dispatch-icon" transform="translate(-21 -16)">
    <rect id="Rectángulo_13" data-name="Rectángulo 13" width="27" height="27" rx="2.492" transform="translate(21 16)" fill="#eb8d48"/>
    <path id="Trazado_115" data-name="Trazado 115" d="M33.826,15.853a5.119,5.119,0,0,0-5.666.9H24.406a.631.631,0,0,0,0,1.263h2.768q-.091.164-.171.335a6.147,6.147,0,0,0-.46,1.559H22.07a.631.631,0,0,0,0,1.263h4.344a15.833,15.833,0,0,0,.041,1.894H19.671a.631.631,0,0,0,0,1.263h6.818a.639.639,0,0,0,.1-.008,30.1,30.1,0,0,0,.633,3.239h0c.165.655.294,1.08.315,1.147a.407.407,0,0,0,.215.248.4.4,0,0,0,.327.007c.068-.028.517-.22,1.178-.544.458-.225,1.019-.514,1.624-.857,2.011-1.14,4.516-2.876,5.427-4.842a5.185,5.185,0,0,0-2.484-6.865Zm-3.34,7.208a2.766,2.766,0,1,1,2.117.092A2.775,2.775,0,0,1,30.486,23.06Zm-8.771,4.5h4.216c.207.858.381,1.43.41,1.521h0a1.667,1.667,0,0,0,.883,1.017,1.65,1.65,0,0,0,1.342.027h0a30.886,30.886,0,0,0,3.792-1.972c.25-.154.505-.316.762-.486a.35.35,0,0,1,.07.108l1.256,4.183a.222.222,0,0,1-.073.225.414.414,0,0,1-.278.1H20.458a.414.414,0,0,1-.278-.1.223.223,0,0,1-.073-.225l1.256-4.183a.349.349,0,0,1,.351-.215Z" transform="translate(6.261 5.054)" fill="#fff" fill-rule="evenodd"/>
  </g>
</svg>
